<?xml version="1.0" standalone="no"?>
<!DOCTYPE svg PUBLIC "-//W3C//DTD SVG 20010904//EN"
 "http://www.w3.org/TR/2001/REC-SVG-20010904/DTD/svg10.dtd">
<svg version="1.0" xmlns="http://www.w3.org/2000/svg"
 width="512.000000pt" height="512.000000pt" viewBox="0 0 512.000000 512.000000"
 preserveAspectRatio="xMidYMid meet">
<metadata>
Created by potrace 1.11, written by Peter Selinger 2001-2013
</metadata>
<g transform="translate(0.000000,512.000000) scale(0.100000,-0.100000)"
fill="#000000" stroke="none">
<path d="M2375 4864 c-368 -28 -700 -116 -999 -266 -219 -110 -383 -225 -550
-387 -128 -125 -203 -214 -292 -348 -194 -292 -315 -648 -354 -1038 -16 -156
-8 -523 15 -665 77 -490 280 -904 603 -1229 328 -330 785 -558 1292 -645 673
-116 1363 19 1891 369 630 418 977 1090 979 1895 1 933 -455 1684 -1255 2066
-249 119 -483 188 -772 229 -104 15 -455 27 -558 19z m410 -154 c836 -77 1501
-508 1818 -1180 129 -272 194 -560 204 -905 16 -549 -136 -1034 -444 -1415
-80 -98 -268 -281 -365 -353 -305 -228 -668 -373 -1083 -434 -170 -24 -544
-24 -710 1 -273 41 -497 108 -722 216 -672 323 -1076 907 -1154 1665 -17 167
-7 504 20 660 108 631 431 1111 959 1426 296 176 677 293 1052 322 102 8 322
6 425 -3z"/>
<path d="M1730 3391 c-90 -28 -165 -96 -208 -189 -34 -75 -42 -220 -18 -308
24 -83 76 -157 139 -198 131 -85 280 -66 386 50 74 81 96 144 96 280 0 107 -1
112 -38 186 -44 89 -95 138 -174 168 -54 20 -136 25 -183 11z"/>
<path d="M3200 3378 c-73 -28 -150 -108 -181 -185 -20 -49 -24 -76 -24 -173 0
-108 2 -119 31 -181 59 -124 161 -194 284 -194 123 0 225 70 284 194 29 62 31
73 31 181 0 96 -4 125 -23 171 -66 166 -245 249 -402 187z"/>
<path d="M2430 2114 c-61 -52 -77 -122 -40 -181 35 -58 61 -67 200 -74 151 -7
200 -27 200 -80 0 -13 -79 -49 -108 -49 -94 -1 -151 -98 -103 -176 19 -31 40
-42 117 -63 59 -16 94 -52 94 -96 0 -33 -4 -38 -47 -57 -37 -17 -77 -23 -179
-27 -101 -5 -137 -10 -158 -24 -88 -58 -88 -190 0 -248 61 -40 311 -14 436 45
150 71 223 200 196 346 -10 55 -38 121 -65 151 -12 14 -10 22 16 65 77 123 55
272 -54 373 -86 80 -216 121 -382 121 -84 0 -94 -2 -123 -26z"/>
</g>
</svg>
